<?xml version="1.0" encoding="UTF-8" standalone="no"?>
<!DOCTYPE svg PUBLIC "-//W3C//DTD SVG 1.1//EN" "http://www.w3.org/Graphics/SVG/1.1/DTD/svg11.dtd">
<svg width="100%" height="100%" viewBox="0 0 60 60" version="1.1" xmlns="http://www.w3.org/2000/svg" xmlns:xlink="http://www.w3.org/1999/xlink" xml:space="preserve" xmlns:serif="http://www.serif.com/" style="fill-rule:evenodd;clip-rule:evenodd;stroke-linejoin:round;stroke-miterlimit:2;">
    <g id="Trust-Points-Icons-Main" serif:id="Trust Points Icons Main" transform="matrix(6,0,0,7.5,102,-97.5)">
        <rect x="-17" y="13" width="10" height="8" style="fill:none;"/>
        <g id="shield" transform="matrix(0.222222,0,0,0.177778,-16.9987,12.9635)">
            <g transform="matrix(0.75,0,0,0.75,0.280527,-0.218751)">
                <g transform="matrix(1.33333,0,0,1.33333,0,6.66667e-07)">
                    <path d="M36.863,10.566C37.004,12.871 37.02,16.434 36.27,20.324C35.457,24.555 33.914,28.305 31.695,31.473C29.395,34.742 26.305,37.453 22.496,39.543L22.496,5.902C22.5,5.898 22.508,5.898 22.512,5.895C26.52,7.824 30.828,9.082 33.859,9.82C34.848,10.063 35.852,10.285 36.855,10.488C36.859,10.516 36.859,10.539 36.863,10.566" style="fill:rgb(223,174,0);fill-rule:nonzero;"/>
                </g>
                <g transform="matrix(-1.33333,0,0,1.33333,59.2519,6.66667e-07)">
                    <path d="M36.863,10.566C37.004,12.871 37.02,16.434 36.27,20.324C35.457,24.555 33.914,28.305 31.695,31.473C29.395,34.742 26.305,37.453 22.496,39.543L22.496,5.902C22.5,5.898 22.508,5.898 22.512,5.895C26.52,7.824 30.828,9.082 33.859,9.82C34.848,10.063 35.852,10.285 36.855,10.488C36.859,10.516 36.859,10.539 36.863,10.566" style="fill:white;fill-rule:nonzero;"/>
                </g>
            </g>
            <path d="M38.867,20.824C37.98,25.422 36.297,29.516 33.859,32.992C31.059,36.977 27.223,40.188 22.445,42.551C17.711,40.191 13.91,36.98 11.129,32.996C8.703,29.52 7.023,25.426 6.137,20.82C5.332,16.66 5.336,12.852 5.484,10.395C5.531,9.578 5.598,8.863 5.664,8.258C6.934,8.039 8.633,7.707 10.523,7.25C13.859,6.441 18.469,5.063 22.516,2.934C26.559,5.063 31.16,6.441 34.484,7.25C36.375,7.711 38.051,8.039 39.313,8.262C39.383,8.863 39.449,9.582 39.5,10.402C39.652,12.859 39.668,16.664 38.867,20.824ZM41.684,10.266C41.574,8.473 41.379,7.109 41.254,6.359C40.156,6.195 37.84,5.816 35,5.125C31.512,4.277 26.574,2.781 22.516,0.434C18.457,2.781 13.508,4.273 10.008,5.121C7.18,5.809 4.82,6.195 3.715,6.359C3.594,7.102 3.406,8.453 3.297,10.266C3.145,12.848 3.141,16.852 3.988,21.238C4.934,26.145 6.734,30.52 9.336,34.25C12.516,38.809 16.926,42.418 22.441,44.977C28.004,42.418 32.449,38.809 35.648,34.246C38.266,30.52 40.07,26.145 41.016,21.238C41.859,16.852 41.844,12.852 41.684,10.266" style="fill:rgb(223,174,0);fill-rule:nonzero;"/>
        </g>
    </g>
</svg>
