<svg xmlns="http://www.w3.org/2000/svg" xml:space="preserve" style="fill-rule:evenodd;clip-rule:evenodd;stroke-linejoin:round;stroke-miterlimit:2" viewBox="0 0 200 400"><g transform="matrix(1.48148 0 0 2.16216 -657.778 0)"><path d="M444 0h135v185H444z" style="fill:none"/><clipPath id="a"><path d="M444 0h135v185H444z"/></clipPath><g clip-path="url(#a)"><path d="M253.4 305.4c.8 0 1.6.3 2.1.9q.9.9.9 2.1c0 .8-.3 1.6-.9 2.2q-.9.9-2.1.9c-.8 0-1.6-.3-2.1-.9-.6-.6-.9-1.3-.9-2.2q0-1.2.9-2.1t2.1-.9m0 .4c-.7 0-1.3.3-1.8.8s-.8 1.1-.8 1.8.3 1.3.8 1.9c.5.5 1.1.8 1.8.8s1.3-.3 1.8-.8.8-1.1.8-1.9c0-.7-.3-1.3-.8-1.8-.4-.5-1.1-.8-1.8-.8m-93-34.2c4.5 0 8.2 1.1 10.4 3.4 1.9 1.9 2.6 4.1 2.6 6.7 0 4.5-2.2 7.1-5.2 8.6 4.5 1.9 7.4 4.5 7.4 9.7 0 6.8-5.5 10.6-13.9 10.8h-19.5v-39.3h18.2zm37.1 0c4.5 0 8.2 1.1 10.4 3.4 1.9 1.9 2.6 4.1 2.6 6.7 0 4.5-2.2 7.1-5.2 8.6 4.5 1.9 7.4 4.5 7.4 9.7 0 6.8-5.5 10.6-13.9 10.8h-19.5v-39.3h18.2zm37.2 0c4.5 0 8.2 1.1 10.4 3.4 1.9 1.9 2.6 4.1 2.6 6.7 0 4.5-2.2 7.1-5.2 8.6 4.5 1.9 7.4 4.5 7.4 9.7 0 6.8-5.5 10.6-13.9 10.8h-19.5v-39.3h18.2zm18.7 35.2c.4 0 .7 0 .9.1.3.1.5.4.5.8 0 .3-.1.5-.3.7-.1.1-.3.1-.5.2.3 0 .4.2.6.3.1.2.2.3.2.5v.6h-.5v-.4c0-.4-.1-.6-.3-.8-.1-.1-.3-.1-.7-.1h-.5v1.3h-.6v-3.3h1.2zm-92.6-12h-10.4v8.6h10.4c3.7 0 6.3-1.5 6.3-4.1s-1.9-4.5-6.3-4.5m37.1 0h-10.4v8.6h10.4c3.7 0 6.3-1.5 6.3-4.1s-1.8-4.5-6.3-4.5m36.8 0h-10v8.6H235c3.7 0 5.9-1.5 5.9-4.1.1-2.6-1.8-4.5-6.2-4.5m-75.4-15.3h-8.9v8.2h8.2c3.7 0 6.3-1.1 6.3-4.1 0-2.6-1.9-4.1-5.6-4.1m37.1 0h-8.9v8.2h8.2c3.7 0 6.3-1.1 6.3-4.1 0-2.6-1.9-4.1-5.6-4.1m37.1 0H225v8.2h7.8c3.7 0 6.3-1.1 6.3-4.1 0-2.6-1.9-4.1-5.6-4.1m-4.4-33.7 2.5 7.9h-17.7l-3.3 11.2h-29.3l-3.3-11.2h-17.7l2.5-7.9zm-47.3-57.3 2.3 1.9s-2.3 3.2.8 6.2l.5.4 15 10.9c2.9 2.3 4.9 5.4 5.9 8.8.3 1 1.3 5.9-.5 10.6-.3.7-.7 1.4-1 2.1l-.6 1-8.5 11.6-2.4-2c.1-.1.2-.2.2-.3.1-.2.2-.3.3-.5.5-.9.5-1.8.3-2.4 0-.2-.1-.3-.1-.5v-.1c0-.1-.1-.2-.2-.3l-.2-.4-.2-.3-1.1-1.1-15.5-11.1c-3.3-2.6-5.6-6.4-6.3-10.5-.1-.8-.1-1.7-.1-2.5 0-3.3.7-6.3 2.4-9l.6-.9 6.1-8.2zm13.9-52.6 1.9 1.5c-1.1 1.5-1.5 3.4-1.1 5.2.3 1.6 1.2 3 2.4 4l.5.4 24.1 17.6c5.2 3.7 8.2 9 9.3 15 1 5.6-.2 11.5-3.4 16.3l-.7.9-16 22.1-2.2-1.6s1.1-1.5 1.7-3.6l.2-.6.2-.8c.2-1 .2-2 .2-3l-.1-.7v-.2c-.1-.8-.3-1.5-.6-2.3 0-.1 0-.1-.1-.2-.7-1.8-2-3.5-3.5-4.8l-.7-.5-20-14.6c-5.2-3.7-8.2-9-9.3-15-.4-1.1-.4-2.6-.4-3.7 0-4.5 1.2-8.6 3.7-12.4l.7-1z" style="fill:#234f91;fill-rule:nonzero" transform="matrix(1.18214 0 0 .80998 275.9 -107.07)"/><path d="M.515 0 .48-.134H.248L.212 0H0l.233-.717H.49L.726 0zM.44-.292.409-.409.395-.464.377-.537.363-.599l-.013.06-.016.071-.015.059-.031.117z" style="fill:#00162d;fill-rule:nonzero" transform="matrix(20.25 0 0 13.875 448.674 166.636)"/><path d="M.395-.566a.13.13 0 0 0-.061.014.14.14 0 0 0-.046.042.2.2 0 0 0-.029.067.4.4 0 0 0-.01.089q0 .068.017.113a.15.15 0 0 0 .052.07.16.16 0 0 0 .088.023.3.3 0 0 0 .092-.013l.089-.032v.163a.506.506 0 0 1-.202.04.36.36 0 0 1-.19-.046.27.27 0 0 1-.109-.129.5.5 0 0 1-.035-.19q0-.08.022-.148A.4.4 0 0 1 .14-.62a.3.3 0 0 1 .109-.077.4.4 0 0 1 .148-.027.5.5 0 0 1 .221.05l-.059.152A1 1 0 0 0 .48-.553a.3.3 0 0 0-.085-.013" style="fill:#00162d;fill-rule:nonzero" transform="matrix(20.25 0 0 13.875 463.377 166.636)"/><path d="M.395-.566a.13.13 0 0 0-.061.014.14.14 0 0 0-.046.042.2.2 0 0 0-.029.067.4.4 0 0 0-.01.089q0 .068.017.113a.15.15 0 0 0 .052.07.16.16 0 0 0 .088.023.3.3 0 0 0 .092-.013l.089-.032v.163a.506.506 0 0 1-.202.04.36.36 0 0 1-.19-.046.27.27 0 0 1-.109-.129.5.5 0 0 1-.035-.19q0-.08.022-.148A.4.4 0 0 1 .14-.62a.3.3 0 0 1 .109-.077.4.4 0 0 1 .148-.027.5.5 0 0 1 .221.05l-.059.152A1 1 0 0 0 .48-.553a.3.3 0 0 0-.085-.013" style="fill:#00162d;fill-rule:nonzero" transform="matrix(20.25 0 0 13.875 476.517 166.636)"/><path d="M.311-.714a.5.5 0 0 1 .162.024.2.2 0 0 1 .097.07.2.2 0 0 1 .032.117.2.2 0 0 1-.056.143.3.3 0 0 1-.065.049L.689 0H.47L.319-.26H.27V0H.077v-.714zm-.003.146H.27v.163h.036q.045 0 .073-.019.028-.02.028-.07a.07.07 0 0 0-.023-.054Q.36-.568.308-.568" style="fill:#00162d;fill-rule:nonzero" transform="matrix(20.25 0 0 13.875 489.658 166.636)"/><path d="M.501 0H.077v-.714h.424v.155H.27v.112h.214v.155H.27v.135h.231z" style="fill:#00162d;fill-rule:nonzero" transform="matrix(20.25 0 0 13.875 503.362 166.636)"/><path d="M.683-.372a.4.4 0 0 1-.046.207.3.3 0 0 1-.131.124A.45.45 0 0 1 .308 0H.077v-.714h.247q.115 0 .196.04a.27.27 0 0 1 .121.115.4.4 0 0 1 .042.187m-.2.007a.3.3 0 0 0-.017-.108.13.13 0 0 0-.052-.064.2.2 0 0 0-.088-.021H.27v.4h.043q.089 0 .129-.051t.041-.156" style="fill:#00162d;fill-rule:nonzero" transform="matrix(20.25 0 0 13.875 514.476 166.636)"/><path d="M.077-.714h.194V0H.077z" style="fill:#00162d;fill-rule:nonzero" transform="matrix(20.25 0 0 13.875 529.338 166.636)"/><path d="M.392 0H.199v-.556H.025v-.158h.541v.158H.392z" style="fill:#00162d;fill-rule:nonzero" transform="matrix(20.25 0 0 13.875 536.387 166.636)"/><path d="M.501 0H.077v-.714h.424v.155H.27v.112h.214v.155H.27v.135h.231z" style="fill:#00162d;fill-rule:nonzero" transform="matrix(20.25 0 0 13.875 548.352 166.636)"/><path d="M.683-.372a.4.4 0 0 1-.046.207.3.3 0 0 1-.131.124A.45.45 0 0 1 .308 0H.077v-.714h.247q.115 0 .196.04a.27.27 0 0 1 .121.115.4.4 0 0 1 .042.187m-.2.007a.3.3 0 0 0-.017-.108.13.13 0 0 0-.052-.064.2.2 0 0 0-.088-.021H.27v.4h.043q.089 0 .129-.051t.041-.156" style="fill:#00162d;fill-rule:nonzero" transform="matrix(20.25 0 0 13.875 559.466 166.636)"/><path d="M.077-.714h.249q.155 0 .221.046a.15.15 0 0 1 .066.132.2.2 0 0 1-.017.079.13.13 0 0 1-.043.052.13.13 0 0 1-.052.026v.005q.03.008.058.024a.13.13 0 0 1 .049.05.2.2 0 0 1 .019.091.2.2 0 0 1-.033.112.2.2 0 0 1-.094.072A.4.4 0 0 1 .355 0H.077zM.27-.44h.058q.047 0 .068-.02a.07.07 0 0 0 .019-.048.05.05 0 0 0-.022-.044Q.37-.568.324-.568H.27zm0 .141v.15h.068q.05 0 .07-.022a.07.07 0 0 0 .02-.054.1.1 0 0 0-.008-.036.1.1 0 0 0-.029-.027.1.1 0 0 0-.057-.011z" style="fill:#00162d;fill-rule:nonzero" transform="matrix(20.25 0 0 13.875 461.958 179.586)"/><path d="M.684-.714v.43q0 .09-.034.156a.24.24 0 0 1-.103.102.36.36 0 0 1-.171.036Q.229.01.151-.066T.073-.28v-.434h.194v.419q0 .076.028.11t.084.034a.12.12 0 0 0 .064-.015.1.1 0 0 0 .037-.047.3.3 0 0 0 .011-.083v-.418z" style="fill:#00162d;fill-rule:nonzero" transform="matrix(20.25 0 0 13.875 475.603 179.586)"/><path d="M.544-.217q0 .059-.029.11a.2.2 0 0 1-.091.085.36.36 0 0 1-.16.032A1 1 0 0 1 .178.005.4.4 0 0 1 .11-.009a1 1 0 0 1-.066-.026v-.172a1 1 0 0 0 .117.045q.06.015.107.015a.1.1 0 0 0 .047-.007.06.06 0 0 0 .027-.019A.04.04 0 0 0 .351-.2a.04.04 0 0 0-.013-.032.2.2 0 0 0-.041-.027L.222-.294a1 1 0 0 1-.071-.038.2.2 0 0 1-.055-.045.2.2 0 0 1-.035-.059.2.2 0 0 1-.012-.079.2.2 0 0 1 .034-.116.2.2 0 0 1 .094-.07.453.453 0 0 1 .267-.007q.055.015.1.035l-.059.149a1 1 0 0 0-.09-.033.3.3 0 0 0-.083-.013.1.1 0 0 0-.041.006.05.05 0 0 0-.023.017.04.04 0 0 0-.008.023q0 .016.013.03a.2.2 0 0 0 .044.028q.03.016.083.04a.5.5 0 0 1 .089.051.2.2 0 0 1 .056.065.2.2 0 0 1 .019.093" style="fill:#00162d;fill-rule:nonzero" transform="matrix(20.25 0 0 13.875 490.929 179.586)"/><path d="M.077-.714h.194V0H.077z" style="fill:#00162d;fill-rule:nonzero" transform="matrix(20.25 0 0 13.875 502.616 179.586)"/><path d="M.757 0H.504L.243-.503H.239l.004.055.004.066.001.06V0H.077v-.714h.252l.26.496h.003L.589-.272.586-.335.585-.391v-.323h.172z" style="fill:#00162d;fill-rule:nonzero" transform="matrix(20.25 0 0 13.875 509.666 179.586)"/><path d="M.501 0H.077v-.714h.424v.155H.27v.112h.214v.155H.27v.135h.231z" style="fill:#00162d;fill-rule:nonzero" transform="matrix(20.25 0 0 13.875 526.554 179.586)"/><path d="M.544-.217q0 .059-.029.11a.2.2 0 0 1-.091.085.36.36 0 0 1-.16.032A1 1 0 0 1 .178.005.4.4 0 0 1 .11-.009a1 1 0 0 1-.066-.026v-.172a1 1 0 0 0 .117.045q.06.015.107.015a.1.1 0 0 0 .047-.007.06.06 0 0 0 .027-.019A.04.04 0 0 0 .351-.2a.04.04 0 0 0-.013-.032.2.2 0 0 0-.041-.027L.222-.294a1 1 0 0 1-.071-.038.2.2 0 0 1-.055-.045.2.2 0 0 1-.035-.059.2.2 0 0 1-.012-.079.2.2 0 0 1 .034-.116.2.2 0 0 1 .094-.07.453.453 0 0 1 .267-.007q.055.015.1.035l-.059.149a1 1 0 0 0-.09-.033.3.3 0 0 0-.083-.013.1.1 0 0 0-.041.006.05.05 0 0 0-.023.017.04.04 0 0 0-.008.023q0 .016.013.03a.2.2 0 0 0 .044.028q.03.016.083.04a.5.5 0 0 1 .089.051.2.2 0 0 1 .056.065.2.2 0 0 1 .019.093" style="fill:#00162d;fill-rule:nonzero" transform="matrix(20.25 0 0 13.875 537.668 179.586)"/><path d="M.544-.217q0 .059-.029.11a.2.2 0 0 1-.091.085.36.36 0 0 1-.16.032A1 1 0 0 1 .178.005.4.4 0 0 1 .11-.009a1 1 0 0 1-.066-.026v-.172a1 1 0 0 0 .117.045q.06.015.107.015a.1.1 0 0 0 .047-.007.06.06 0 0 0 .027-.019A.04.04 0 0 0 .351-.2a.04.04 0 0 0-.013-.032.2.2 0 0 0-.041-.027L.222-.294a1 1 0 0 1-.071-.038.2.2 0 0 1-.055-.045.2.2 0 0 1-.035-.059.2.2 0 0 1-.012-.079.2.2 0 0 1 .034-.116.2.2 0 0 1 .094-.07.453.453 0 0 1 .267-.007q.055.015.1.035l-.059.149a1 1 0 0 0-.09-.033.3.3 0 0 0-.083-.013.1.1 0 0 0-.041.006.05.05 0 0 0-.023.017.04.04 0 0 0-.008.023q0 .016.013.03a.2.2 0 0 0 .044.028q.03.016.083.04a.5.5 0 0 1 .089.051.2.2 0 0 1 .056.065.2.2 0 0 1 .019.093" style="fill:#00162d;fill-rule:nonzero" transform="matrix(20.25 0 0 13.875 549.355 179.586)"/></g></g></svg>