<?xml version="1.0" encoding="UTF-8" standalone="no"?>
<!DOCTYPE svg PUBLIC "-//W3C//DTD SVG 1.1//EN" "http://www.w3.org/Graphics/SVG/1.1/DTD/svg11.dtd">
<svg width="100%" height="100%" viewBox="0 0 300 300" version="1.1" xmlns="http://www.w3.org/2000/svg" xmlns:xlink="http://www.w3.org/1999/xlink" xml:space="preserve" xmlns:serif="http://www.serif.com/" style="fill-rule:evenodd;clip-rule:evenodd;stroke-linecap:round;stroke-linejoin:round;stroke-miterlimit:1.5;">
    <g id="Artboard1" transform="matrix(1,0,0,0.5,0,0)">
        <rect x="0" y="0" width="300" height="600" style="fill:none;"/>
        <g id="google-reviews" serif:id="google reviews" transform="matrix(0.99,0,0,0.99,1.5,3)">
            <g transform="matrix(1.35135,0,0,2.7027,-43.2432,-210.811)">
                <circle cx="143" cy="189" r="111" style="fill:rgb(0,31,63);stroke:rgb(0,31,63);stroke-width:0.75px;"/>
            </g>
            <g transform="matrix(1.30631,0,0,2.61261,-36.8018,-193.784)">
                <circle cx="143" cy="189" r="111" style="fill:white;"/>
            </g>
            <g transform="matrix(1.1133,0,0,1.1133,-30.5843,-23.6943)">
                <g transform="matrix(1,0,0,2,4.9738e-14,4.9738e-14)">
                    <path d="M89,184L91.694,192.292L100.413,192.292L93.359,197.416L96.053,205.708L89,200.584L81.947,205.708L84.641,197.416L77.587,192.292L86.306,192.292L89,184Z" style="fill:rgb(239,184,0);stroke:rgb(239,184,0);stroke-width:1.81px;"/>
                </g>
                <g transform="matrix(1,0,0,2,36.6032,4.9738e-14)">
                    <path d="M89,184L91.694,192.292L100.413,192.292L93.359,197.416L96.053,205.708L89,200.584L81.947,205.708L84.641,197.416L77.587,192.292L86.306,192.292L89,184Z" style="fill:rgb(239,184,0);stroke:rgb(239,184,0);stroke-width:1.81px;"/>
                </g>
                <g transform="matrix(1,0,0,2,73.2063,4.9738e-14)">
                    <path d="M89,184L91.694,192.292L100.413,192.292L93.359,197.416L96.053,205.708L89,200.584L81.947,205.708L84.641,197.416L77.587,192.292L86.306,192.292L89,184Z" style="fill:rgb(239,184,0);stroke:rgb(239,184,0);stroke-width:1.81px;"/>
                </g>
                <g transform="matrix(1,0,0,2,109.81,4.9738e-14)">
                    <path d="M89,184L91.694,192.292L100.413,192.292L93.359,197.416L96.053,205.708L89,200.584L81.947,205.708L84.641,197.416L77.587,192.292L86.306,192.292L89,184Z" style="fill:rgb(239,184,0);stroke:rgb(239,184,0);stroke-width:1.81px;"/>
                </g>
                <g transform="matrix(1,0,0,2,146.413,4.9738e-14)">
                    <path d="M89,184L91.694,192.292L100.413,192.292L93.359,197.416L96.053,205.708L89,200.584L81.947,205.708L84.641,197.416L77.587,192.292L86.306,192.292L89,184Z" style="fill:rgb(239,184,0);stroke:rgb(239,184,0);stroke-width:1.81px;"/>
                </g>
            </g>
            <g transform="matrix(1.53376,0,0,3.06752,-97.7404,-142.649)">
                <g transform="matrix(64,0,0,64,114.5,163.625)">
                    <path d="M0.571,-0.138L0.492,-0.138L0.492,-0L0.302,-0L0.302,-0.138L0.017,-0.138L0.017,-0.28L0.314,-0.714L0.492,-0.714L0.492,-0.282L0.571,-0.282L0.571,-0.138ZM0.302,-0.282L0.302,-0.365C0.302,-0.373 0.302,-0.382 0.302,-0.394C0.303,-0.405 0.303,-0.416 0.303,-0.428C0.304,-0.44 0.304,-0.449 0.305,-0.457C0.305,-0.465 0.306,-0.47 0.306,-0.47L0.301,-0.47C0.295,-0.456 0.289,-0.443 0.284,-0.434C0.278,-0.424 0.272,-0.413 0.263,-0.4L0.184,-0.282L0.302,-0.282Z" style="fill:rgb(0,31,63);fill-rule:nonzero;"/>
                </g>
                <g transform="matrix(64,0,0,64,152,163.625)">
                    <path d="M0.042,-0.081C0.042,-0.116 0.052,-0.14 0.073,-0.154C0.093,-0.168 0.117,-0.175 0.146,-0.175C0.173,-0.175 0.196,-0.168 0.216,-0.154C0.236,-0.14 0.246,-0.116 0.246,-0.081C0.246,-0.048 0.236,-0.024 0.216,-0.01C0.196,0.005 0.173,0.012 0.146,0.012C0.117,0.012 0.093,0.005 0.073,-0.01C0.052,-0.024 0.042,-0.048 0.042,-0.081Z" style="fill:rgb(0,31,63);fill-rule:nonzero;"/>
                </g>
                <g transform="matrix(64,0,0,64,170.5,163.625)">
                    <path d="M0.552,-0.401C0.552,-0.35 0.547,-0.303 0.538,-0.26C0.529,-0.218 0.516,-0.18 0.497,-0.146C0.478,-0.113 0.454,-0.085 0.425,-0.061C0.396,-0.038 0.361,-0.02 0.32,-0.008C0.279,0.004 0.232,0.01 0.179,0.01C0.165,0.01 0.148,0.009 0.128,0.009C0.109,0.008 0.092,0.007 0.079,0.005L0.079,-0.148C0.093,-0.146 0.107,-0.144 0.121,-0.142C0.135,-0.141 0.151,-0.14 0.17,-0.14C0.224,-0.14 0.265,-0.148 0.295,-0.163C0.324,-0.178 0.345,-0.2 0.357,-0.227C0.369,-0.254 0.376,-0.285 0.378,-0.321L0.372,-0.321C0.364,-0.305 0.353,-0.291 0.341,-0.278C0.329,-0.266 0.314,-0.256 0.296,-0.249C0.278,-0.241 0.255,-0.238 0.228,-0.238C0.188,-0.238 0.153,-0.247 0.124,-0.265C0.094,-0.283 0.071,-0.31 0.055,-0.344C0.039,-0.379 0.031,-0.421 0.031,-0.471C0.031,-0.524 0.041,-0.57 0.061,-0.607C0.082,-0.645 0.111,-0.674 0.149,-0.694C0.187,-0.714 0.232,-0.724 0.284,-0.724C0.321,-0.724 0.356,-0.718 0.388,-0.705C0.421,-0.692 0.449,-0.673 0.474,-0.647C0.498,-0.621 0.517,-0.587 0.531,-0.546C0.545,-0.506 0.552,-0.457 0.552,-0.401ZM0.289,-0.57C0.267,-0.57 0.249,-0.562 0.237,-0.547C0.224,-0.532 0.218,-0.507 0.218,-0.473C0.218,-0.446 0.224,-0.425 0.235,-0.41C0.247,-0.394 0.264,-0.386 0.287,-0.386C0.301,-0.386 0.314,-0.39 0.325,-0.398C0.336,-0.405 0.344,-0.415 0.351,-0.427C0.357,-0.439 0.36,-0.451 0.36,-0.464C0.36,-0.477 0.358,-0.489 0.356,-0.502C0.353,-0.514 0.349,-0.526 0.343,-0.536C0.337,-0.546 0.33,-0.554 0.321,-0.561C0.312,-0.567 0.301,-0.57 0.289,-0.57Z" style="fill:rgb(0,31,63);fill-rule:nonzero;"/>
                </g>
                <g transform="matrix(64,0,0,64,208,163.625)">
                </g>
            </g>
            <g transform="matrix(3.375,0,0,6.75,150,125.116)">
                <g transform="matrix(1,0,0,1,-12,-12)">
                    <path d="M22.56,12.25C22.56,11.47 22.49,10.72 22.36,10L12,10L12,14.26L17.92,14.26C17.66,15.63 16.88,16.79 15.71,17.57L15.71,20.34L19.28,20.34C21.36,18.42 22.56,15.6 22.56,12.25" style="fill:rgb(66,133,244);fill-rule:nonzero;"/>
                    <path d="M12,23C14.97,23 17.46,22.02 19.28,20.34L15.71,17.57C14.73,18.23 13.48,18.63 12,18.63C9.14,18.63 6.71,16.7 5.84,14.1L2.18,14.1L2.18,16.94C3.99,20.53 7.7,23 12,23" style="fill:rgb(52,168,83);fill-rule:nonzero;"/>
                    <path d="M5.84,14.09C5.62,13.43 5.49,12.73 5.49,12C5.49,11.27 5.62,10.57 5.84,9.91L5.84,7.07L2.18,7.07C1.43,8.55 1,10.22 1,12C1,13.78 1.43,15.45 2.18,16.93L5.03,14.71L5.84,14.09Z" style="fill:rgb(251,188,5);fill-rule:nonzero;"/>
                    <path d="M12,5.38C13.62,5.38 15.06,5.94 16.21,7.02L19.36,3.87C17.45,2.09 14.97,1 12,1C7.7,1 3.99,3.47 2.18,7.07L5.84,9.91C6.71,7.31 9.14,5.38 12,5.38" style="fill:rgb(234,67,53);fill-rule:nonzero;"/>
                    <rect x="1" y="1" width="22" height="22" style="fill:none;fill-rule:nonzero;"/>
                </g>
            </g>
            <g transform="matrix(1.8784,0,0,3.7568,-43.5117,-358.982)">
                <g transform="matrix(12,0,0,12,81.6474,227.117)">
                    <path d="M0.364,-0.418L0.672,-0.418L0.672,-0.033C0.635,-0.021 0.593,-0.01 0.545,-0.002C0.498,0.006 0.448,0.01 0.396,0.01C0.327,0.01 0.267,-0.004 0.215,-0.03C0.164,-0.057 0.123,-0.098 0.094,-0.152C0.065,-0.207 0.051,-0.276 0.051,-0.359C0.051,-0.434 0.065,-0.498 0.094,-0.553C0.122,-0.608 0.165,-0.65 0.22,-0.679C0.276,-0.709 0.345,-0.724 0.426,-0.724C0.47,-0.724 0.513,-0.72 0.553,-0.711C0.593,-0.703 0.628,-0.692 0.657,-0.679L0.596,-0.528C0.57,-0.541 0.544,-0.55 0.516,-0.556C0.488,-0.563 0.459,-0.566 0.427,-0.566C0.384,-0.566 0.35,-0.556 0.324,-0.537C0.298,-0.518 0.279,-0.492 0.268,-0.46C0.256,-0.428 0.25,-0.393 0.25,-0.354C0.25,-0.31 0.256,-0.272 0.269,-0.242C0.281,-0.212 0.3,-0.188 0.324,-0.173C0.348,-0.157 0.378,-0.149 0.412,-0.149C0.424,-0.149 0.437,-0.15 0.454,-0.151C0.47,-0.153 0.483,-0.155 0.491,-0.157L0.491,-0.269L0.364,-0.269L0.364,-0.418Z" style="fill-rule:nonzero;"/>
                </g>
                <g transform="matrix(12,0,0,12,90.5302,227.117)">
                    <path d="M0.594,-0.278C0.594,-0.232 0.588,-0.191 0.575,-0.155C0.563,-0.119 0.544,-0.089 0.52,-0.064C0.496,-0.04 0.467,-0.022 0.433,-0.009C0.398,0.003 0.36,0.01 0.317,0.01C0.277,0.01 0.24,0.003 0.207,-0.009C0.173,-0.022 0.144,-0.04 0.12,-0.064C0.095,-0.089 0.076,-0.119 0.062,-0.155C0.049,-0.191 0.042,-0.232 0.042,-0.278C0.042,-0.339 0.053,-0.391 0.075,-0.433C0.098,-0.475 0.13,-0.508 0.171,-0.53C0.213,-0.552 0.262,-0.563 0.32,-0.563C0.373,-0.563 0.42,-0.552 0.461,-0.53C0.503,-0.508 0.535,-0.475 0.559,-0.433C0.582,-0.391 0.594,-0.339 0.594,-0.278ZM0.236,-0.278C0.236,-0.246 0.239,-0.22 0.244,-0.198C0.25,-0.176 0.259,-0.16 0.271,-0.149C0.283,-0.137 0.299,-0.132 0.319,-0.132C0.339,-0.132 0.354,-0.137 0.366,-0.149C0.378,-0.16 0.386,-0.176 0.392,-0.198C0.397,-0.22 0.4,-0.246 0.4,-0.278C0.4,-0.309 0.397,-0.336 0.392,-0.357C0.386,-0.378 0.378,-0.394 0.366,-0.405C0.354,-0.416 0.338,-0.421 0.318,-0.421C0.289,-0.421 0.268,-0.409 0.255,-0.385C0.242,-0.361 0.236,-0.325 0.236,-0.278Z" style="fill-rule:nonzero;"/>
                </g>
                <g transform="matrix(12,0,0,12,98.1767,227.117)">
                    <path d="M0.594,-0.278C0.594,-0.232 0.588,-0.191 0.575,-0.155C0.563,-0.119 0.544,-0.089 0.52,-0.064C0.496,-0.04 0.467,-0.022 0.433,-0.009C0.398,0.003 0.36,0.01 0.317,0.01C0.277,0.01 0.24,0.003 0.207,-0.009C0.173,-0.022 0.144,-0.04 0.12,-0.064C0.095,-0.089 0.076,-0.119 0.062,-0.155C0.049,-0.191 0.042,-0.232 0.042,-0.278C0.042,-0.339 0.053,-0.391 0.075,-0.433C0.098,-0.475 0.13,-0.508 0.171,-0.53C0.213,-0.552 0.262,-0.563 0.32,-0.563C0.373,-0.563 0.42,-0.552 0.461,-0.53C0.503,-0.508 0.535,-0.475 0.559,-0.433C0.582,-0.391 0.594,-0.339 0.594,-0.278ZM0.236,-0.278C0.236,-0.246 0.239,-0.22 0.244,-0.198C0.25,-0.176 0.259,-0.16 0.271,-0.149C0.283,-0.137 0.299,-0.132 0.319,-0.132C0.339,-0.132 0.354,-0.137 0.366,-0.149C0.378,-0.16 0.386,-0.176 0.392,-0.198C0.397,-0.22 0.4,-0.246 0.4,-0.278C0.4,-0.309 0.397,-0.336 0.392,-0.357C0.386,-0.378 0.378,-0.394 0.366,-0.405C0.354,-0.416 0.338,-0.421 0.318,-0.421C0.289,-0.421 0.268,-0.409 0.255,-0.385C0.242,-0.361 0.236,-0.325 0.236,-0.278Z" style="fill-rule:nonzero;"/>
                </g>
                <g transform="matrix(12,0,0,12,105.823,227.117)">
                    <path d="M0.255,0.24C0.176,0.24 0.116,0.227 0.073,0.201C0.031,0.175 0.01,0.137 0.01,0.088C0.01,0.055 0.02,0.028 0.041,0.006C0.061,-0.015 0.092,-0.031 0.133,-0.04C0.116,-0.047 0.101,-0.059 0.089,-0.075C0.076,-0.091 0.07,-0.106 0.07,-0.122C0.07,-0.139 0.075,-0.155 0.084,-0.168C0.093,-0.181 0.113,-0.197 0.143,-0.215C0.114,-0.228 0.092,-0.247 0.075,-0.274C0.059,-0.301 0.051,-0.334 0.051,-0.373C0.051,-0.413 0.06,-0.447 0.078,-0.476C0.097,-0.504 0.124,-0.526 0.159,-0.541C0.194,-0.556 0.237,-0.563 0.288,-0.563C0.295,-0.563 0.305,-0.562 0.319,-0.561C0.333,-0.56 0.347,-0.559 0.362,-0.557C0.376,-0.556 0.387,-0.555 0.395,-0.553L0.588,-0.553L0.588,-0.461L0.512,-0.433C0.517,-0.424 0.521,-0.413 0.524,-0.402C0.527,-0.391 0.528,-0.38 0.528,-0.367C0.528,-0.308 0.507,-0.261 0.465,-0.229C0.423,-0.196 0.361,-0.179 0.278,-0.179C0.257,-0.179 0.241,-0.181 0.229,-0.183C0.227,-0.179 0.225,-0.175 0.224,-0.171C0.223,-0.167 0.222,-0.163 0.222,-0.159C0.222,-0.152 0.227,-0.146 0.236,-0.141C0.245,-0.137 0.255,-0.134 0.268,-0.132C0.281,-0.131 0.293,-0.13 0.305,-0.13L0.397,-0.13C0.459,-0.13 0.506,-0.117 0.537,-0.091C0.568,-0.065 0.583,-0.026 0.583,0.027C0.583,0.094 0.554,0.147 0.497,0.184C0.439,0.222 0.359,0.24 0.255,0.24ZM0.264,0.121C0.287,0.121 0.311,0.119 0.334,0.115C0.357,0.111 0.377,0.104 0.393,0.095C0.409,0.086 0.417,0.074 0.417,0.059C0.417,0.048 0.412,0.039 0.403,0.033C0.393,0.028 0.381,0.024 0.366,0.022C0.351,0.02 0.335,0.019 0.319,0.019L0.245,0.019C0.231,0.019 0.219,0.021 0.207,0.026C0.196,0.03 0.187,0.036 0.181,0.043C0.174,0.051 0.171,0.059 0.171,0.069C0.171,0.084 0.179,0.097 0.196,0.107C0.213,0.116 0.236,0.121 0.264,0.121ZM0.29,-0.287C0.308,-0.287 0.322,-0.294 0.332,-0.308C0.342,-0.322 0.347,-0.343 0.347,-0.371C0.347,-0.4 0.342,-0.421 0.333,-0.436C0.324,-0.45 0.309,-0.457 0.29,-0.457C0.27,-0.457 0.255,-0.45 0.246,-0.436C0.236,-0.422 0.231,-0.4 0.231,-0.372C0.231,-0.344 0.236,-0.323 0.246,-0.308C0.255,-0.294 0.27,-0.287 0.29,-0.287Z" style="fill-rule:nonzero;"/>
                </g>
                <g transform="matrix(12,0,0,12,113.095,227.117)">
                    <rect x="0.066" y="-0.76" width="0.191" height="0.76" style="fill-rule:nonzero;"/>
                </g>
                <g transform="matrix(12,0,0,12,116.974,227.117)">
                    <path d="M0.315,-0.563C0.369,-0.563 0.415,-0.554 0.454,-0.535C0.493,-0.516 0.523,-0.488 0.544,-0.451C0.566,-0.413 0.576,-0.366 0.576,-0.31L0.576,-0.225L0.235,-0.225C0.236,-0.196 0.247,-0.172 0.267,-0.154C0.287,-0.135 0.317,-0.126 0.356,-0.126C0.39,-0.126 0.422,-0.129 0.451,-0.136C0.48,-0.143 0.509,-0.154 0.54,-0.168L0.54,-0.031C0.513,-0.017 0.484,-0.007 0.453,-0C0.421,0.007 0.381,0.01 0.333,0.01C0.277,0.01 0.228,-0 0.184,-0.02C0.14,-0.04 0.105,-0.071 0.08,-0.112C0.055,-0.154 0.042,-0.208 0.042,-0.273C0.042,-0.339 0.053,-0.394 0.076,-0.437C0.099,-0.48 0.131,-0.511 0.172,-0.532C0.213,-0.553 0.261,-0.563 0.315,-0.563ZM0.322,-0.433C0.299,-0.433 0.281,-0.426 0.265,-0.412C0.25,-0.398 0.241,-0.375 0.239,-0.345L0.403,-0.345C0.403,-0.361 0.399,-0.376 0.393,-0.39C0.387,-0.403 0.378,-0.414 0.366,-0.421C0.354,-0.429 0.339,-0.433 0.322,-0.433Z" style="fill-rule:nonzero;"/>
                </g>
                <g transform="matrix(12,0,0,12,124.392,227.117)">
                </g>
                <g transform="matrix(12,0,0,12,77.3613,239.117)">
                    <path d="M0.311,-0.714C0.376,-0.714 0.43,-0.706 0.473,-0.69C0.516,-0.674 0.548,-0.651 0.57,-0.62C0.591,-0.588 0.602,-0.549 0.602,-0.503C0.602,-0.474 0.597,-0.448 0.587,-0.424C0.578,-0.4 0.564,-0.379 0.546,-0.36C0.528,-0.341 0.506,-0.325 0.481,-0.311L0.689,-0L0.47,-0L0.319,-0.26L0.27,-0.26L0.27,-0L0.077,-0L0.077,-0.714L0.311,-0.714ZM0.308,-0.568L0.27,-0.568L0.27,-0.405L0.306,-0.405C0.336,-0.405 0.36,-0.411 0.379,-0.424C0.398,-0.437 0.407,-0.461 0.407,-0.494C0.407,-0.517 0.399,-0.535 0.384,-0.548C0.368,-0.561 0.343,-0.568 0.308,-0.568Z" style="fill-rule:nonzero;"/>
                </g>
                <g transform="matrix(12,0,0,12,85.4824,239.117)">
                    <path d="M0.315,-0.563C0.369,-0.563 0.415,-0.554 0.454,-0.535C0.493,-0.516 0.523,-0.488 0.544,-0.451C0.566,-0.413 0.576,-0.366 0.576,-0.31L0.576,-0.225L0.235,-0.225C0.236,-0.196 0.247,-0.172 0.267,-0.154C0.287,-0.135 0.317,-0.126 0.356,-0.126C0.39,-0.126 0.422,-0.129 0.451,-0.136C0.48,-0.143 0.509,-0.154 0.54,-0.168L0.54,-0.031C0.513,-0.017 0.484,-0.007 0.453,-0C0.421,0.007 0.381,0.01 0.333,0.01C0.277,0.01 0.228,-0 0.184,-0.02C0.14,-0.04 0.105,-0.071 0.08,-0.112C0.055,-0.154 0.042,-0.208 0.042,-0.273C0.042,-0.339 0.053,-0.394 0.076,-0.437C0.099,-0.48 0.131,-0.511 0.172,-0.532C0.213,-0.553 0.261,-0.563 0.315,-0.563ZM0.322,-0.433C0.299,-0.433 0.281,-0.426 0.265,-0.412C0.25,-0.398 0.241,-0.375 0.239,-0.345L0.403,-0.345C0.403,-0.361 0.399,-0.376 0.393,-0.39C0.387,-0.403 0.378,-0.414 0.366,-0.421C0.354,-0.429 0.339,-0.433 0.322,-0.433Z" style="fill-rule:nonzero;"/>
                </g>
                <g transform="matrix(12,0,0,12,92.9004,239.117)">
                    <path d="M0.211,-0L0,-0.553L0.199,-0.553L0.293,-0.226C0.294,-0.223 0.296,-0.216 0.298,-0.204C0.301,-0.192 0.302,-0.18 0.302,-0.17L0.305,-0.17C0.305,-0.181 0.306,-0.192 0.309,-0.202C0.311,-0.212 0.313,-0.22 0.314,-0.225L0.412,-0.553L0.611,-0.553L0.4,-0L0.211,-0Z" style="fill-rule:nonzero;"/>
                </g>
                <g transform="matrix(12,0,0,12,100.23,239.117)">
                    <path d="M0.258,-0.553L0.258,-0L0.067,-0L0.067,-0.553L0.258,-0.553ZM0.163,-0.776C0.19,-0.776 0.214,-0.77 0.235,-0.759C0.255,-0.747 0.265,-0.725 0.265,-0.691C0.265,-0.658 0.255,-0.636 0.235,-0.624C0.214,-0.613 0.19,-0.607 0.163,-0.607C0.135,-0.607 0.111,-0.613 0.092,-0.624C0.072,-0.636 0.062,-0.658 0.062,-0.691C0.062,-0.725 0.072,-0.747 0.092,-0.759C0.111,-0.77 0.135,-0.776 0.163,-0.776Z" style="fill-rule:nonzero;"/>
                </g>
                <g transform="matrix(12,0,0,12,104.133,239.117)">
                    <path d="M0.315,-0.563C0.369,-0.563 0.415,-0.554 0.454,-0.535C0.493,-0.516 0.523,-0.488 0.544,-0.451C0.566,-0.413 0.576,-0.366 0.576,-0.31L0.576,-0.225L0.235,-0.225C0.236,-0.196 0.247,-0.172 0.267,-0.154C0.287,-0.135 0.317,-0.126 0.356,-0.126C0.39,-0.126 0.422,-0.129 0.451,-0.136C0.48,-0.143 0.509,-0.154 0.54,-0.168L0.54,-0.031C0.513,-0.017 0.484,-0.007 0.453,-0C0.421,0.007 0.381,0.01 0.333,0.01C0.277,0.01 0.228,-0 0.184,-0.02C0.14,-0.04 0.105,-0.071 0.08,-0.112C0.055,-0.154 0.042,-0.208 0.042,-0.273C0.042,-0.339 0.053,-0.394 0.076,-0.437C0.099,-0.48 0.131,-0.511 0.172,-0.532C0.213,-0.553 0.261,-0.563 0.315,-0.563ZM0.322,-0.433C0.299,-0.433 0.281,-0.426 0.265,-0.412C0.25,-0.398 0.241,-0.375 0.239,-0.345L0.403,-0.345C0.403,-0.361 0.399,-0.376 0.393,-0.39C0.387,-0.403 0.378,-0.414 0.366,-0.421C0.354,-0.429 0.339,-0.433 0.322,-0.433Z" style="fill-rule:nonzero;"/>
                </g>
                <g transform="matrix(12,0,0,12,111.551,239.117)">
                    <path d="M0.542,-0L0.484,-0.242C0.481,-0.255 0.478,-0.269 0.475,-0.284C0.472,-0.3 0.469,-0.316 0.467,-0.332C0.464,-0.348 0.461,-0.363 0.459,-0.376C0.458,-0.389 0.456,-0.4 0.455,-0.407L0.452,-0.407C0.451,-0.4 0.45,-0.389 0.447,-0.376C0.445,-0.362 0.442,-0.347 0.439,-0.331C0.437,-0.315 0.433,-0.298 0.43,-0.281C0.427,-0.265 0.423,-0.249 0.42,-0.235L0.364,-0L0.163,-0L0.012,-0.553L0.2,-0.553L0.245,-0.341C0.248,-0.325 0.252,-0.307 0.255,-0.285C0.259,-0.263 0.262,-0.241 0.264,-0.219C0.267,-0.197 0.269,-0.177 0.27,-0.159L0.273,-0.159C0.274,-0.173 0.275,-0.188 0.278,-0.205C0.28,-0.223 0.283,-0.24 0.286,-0.257C0.289,-0.275 0.292,-0.29 0.294,-0.303C0.297,-0.316 0.299,-0.325 0.3,-0.33L0.351,-0.553L0.562,-0.553L0.609,-0.327C0.612,-0.314 0.615,-0.298 0.619,-0.279C0.623,-0.259 0.626,-0.238 0.63,-0.217C0.633,-0.196 0.636,-0.176 0.637,-0.159L0.64,-0.159C0.641,-0.177 0.643,-0.197 0.646,-0.22C0.649,-0.243 0.652,-0.265 0.655,-0.287C0.658,-0.309 0.662,-0.326 0.665,-0.341L0.714,-0.553L0.898,-0.553L0.746,-0L0.542,-0Z" style="fill-rule:nonzero;"/>
                </g>
                <g transform="matrix(12,0,0,12,122.473,239.117)">
                    <path d="M0.477,-0.17C0.477,-0.135 0.469,-0.104 0.454,-0.077C0.438,-0.05 0.413,-0.028 0.379,-0.013C0.344,0.002 0.299,0.01 0.243,0.01C0.204,0.01 0.169,0.008 0.137,0.003C0.106,-0.001 0.075,-0.009 0.043,-0.021L0.043,-0.174C0.078,-0.158 0.113,-0.146 0.149,-0.139C0.186,-0.132 0.214,-0.129 0.235,-0.129C0.256,-0.129 0.272,-0.131 0.282,-0.136C0.292,-0.141 0.297,-0.148 0.297,-0.157C0.297,-0.165 0.294,-0.172 0.287,-0.178C0.28,-0.184 0.268,-0.19 0.251,-0.198C0.234,-0.205 0.21,-0.215 0.179,-0.228C0.149,-0.241 0.123,-0.255 0.103,-0.27C0.082,-0.285 0.067,-0.302 0.057,-0.323C0.047,-0.344 0.042,-0.37 0.042,-0.4C0.042,-0.454 0.063,-0.495 0.104,-0.522C0.146,-0.549 0.201,-0.563 0.27,-0.563C0.306,-0.563 0.341,-0.559 0.373,-0.551C0.405,-0.543 0.439,-0.531 0.473,-0.516L0.421,-0.393C0.394,-0.405 0.366,-0.415 0.338,-0.423C0.31,-0.43 0.288,-0.434 0.271,-0.434C0.256,-0.434 0.244,-0.432 0.236,-0.428C0.228,-0.424 0.224,-0.419 0.224,-0.411C0.224,-0.404 0.227,-0.398 0.233,-0.393C0.238,-0.388 0.249,-0.382 0.265,-0.375C0.281,-0.368 0.304,-0.359 0.335,-0.346C0.367,-0.333 0.394,-0.319 0.415,-0.304C0.436,-0.29 0.451,-0.272 0.462,-0.25C0.472,-0.229 0.477,-0.202 0.477,-0.17Z" style="fill-rule:nonzero;"/>
                </g>
                <g transform="matrix(12,0,0,12,128.678,239.117)">
                </g>
            </g>
        </g>
    </g>
</svg>
